<?xml version="1.0" encoding="UTF-8"?>
<svg version="1.1" xmlns="http://www.w3.org/2000/svg" width="143" height="143">
<path d="M0 0 C14.3868908 11.73554324 26.00718777 27.86884459 28.30664062 46.72021484 C29.54735896 65.77491655 26.92755083 81.15517994 17.30664062 97.72021484 C16.33322613 98.74611163 15.33881785 99.75346245 14.30664062 100.72021484 C11.5948909 98.18238099 8.91705529 95.61137056 6.24414062 93.03271484 C5.47263672 92.31148438 4.70113281 91.59025391 3.90625 90.84716797 C3.18115234 90.14140625 2.45605469 89.43564453 1.70898438 88.70849609 C1.03343506 88.06436768 0.35788574 87.42023926 -0.33813477 86.7565918 C-1.69335938 84.72021484 -1.69335938 84.72021484 -1.46459961 82.13867188 C-0.61799561 79.48388897 0.30353461 76.88267713 1.30664062 74.28271484 C5.84305666 61.97193364 5.28181465 49.66157266 -0.08789062 37.58349609 C-2.06944036 33.82607646 -3.86092031 30.54968621 -6.88476562 27.53662109 C-8.69335938 25.72021484 -8.69335938 25.72021484 -8.69335938 23.72021484 C-9.26957031 23.44951172 -9.84578125 23.17880859 -10.43945312 22.89990234 C-12.71298331 21.70994374 -14.67653501 20.34543766 -16.75585938 18.84521484 C-26.99433992 11.92366353 -38.85768891 9.21649158 -51.02148438 11.28662109 C-56.71122552 12.52719251 -61.50248241 14.05822666 -66.69335938 16.72021484 C-70.24494088 16.33105603 -71.91826919 14.85155737 -74.36523438 12.34130859 C-75.02910156 11.66777344 -75.69296875 10.99423828 -76.37695312 10.30029297 C-77.05886719 9.59324219 -77.74078125 8.88619141 -78.44335938 8.15771484 C-79.14074219 7.44679688 -79.838125 6.73587891 -80.55664062 6.00341797 C-82.27582518 4.24890771 -83.98761809 2.48778132 -85.69335938 0.72021484 C-64.81141639 -21.57491067 -22.33872859 -16.88287417 0 0 Z " fill="#616461" transform="translate(114.693359375,13.27978515625)"/>
<path d="M0 0 C4.29598304 3.54885556 8.44417342 7.24088312 12.5 11.0625 C13.3765625 11.87847656 14.253125 12.69445313 15.15625 13.53515625 C17 16 17 16 16.90625 18.46875 C16.6071875 19.3040625 16.308125 20.139375 16 21 C15.690625 21.88558594 15.38125 22.77117188 15.0625 23.68359375 C14.711875 24.59238281 14.36125 25.50117187 14 26.4375 C9.46158433 38.77015129 9.91996282 51.02848968 15.39453125 63.06640625 C17.37981676 66.84096174 19.157374 70.15887601 22.19140625 73.1875 C24 75 24 75 24 77 C24.57621094 77.27070312 25.15242188 77.54140625 25.74609375 77.8203125 C28.01962393 79.0102711 29.98317563 80.37477718 32.0625 81.875 C42.30098054 88.79655131 54.16432953 91.50372326 66.328125 89.43359375 C72.01786614 88.19302234 76.80912303 86.66198819 82 84 C85.5515815 84.38915882 87.22490981 85.86865748 89.671875 88.37890625 C90.33574219 89.05244141 90.99960938 89.72597656 91.68359375 90.41992188 C92.36550781 91.12697266 93.04742187 91.83402344 93.75 92.5625 C94.79607422 93.62887695 94.79607422 93.62887695 95.86328125 94.71679688 C97.5824658 96.47130714 99.29425872 98.23243352 101 100 C85.51151915 113.14787087 66.63616175 115.5337864 47 114 C27.89614143 111.61254401 12.93776651 100.377702 0.6875 86.25 C-12.33694587 69.1554148 -14.82032495 49.11462379 -12.6015625 28.25390625 C-10.67680192 18.24265155 -5.63014035 8.44521053 0 0 Z " fill="#1F2522" transform="translate(13,29)"/>
<path d="M0 0 C5.80709984 4.12116763 9.28727609 8.17323262 11.6875 14.9375 C12.79690257 22.25955699 11.72549704 28.1595269 7.453125 34.1796875 C3.22766568 39.28389278 -1.25832564 42.97853419 -8 44 C-14.99074719 44.5482939 -20.94616226 42.96802876 -26.8125 39.1875 C-32.22640272 33.77359728 -34.60952145 28.21716839 -35.3125 20.625 C-34.73099872 13.87958513 -32.87266235 7.87266235 -28 3 C-19.50358705 -3.60832118 -9.56103165 -5.16223002 0 0 Z " fill="#606260" transform="translate(83,51)"/>
</svg>
